<svg xmlns="http://www.w3.org/2000/svg" viewBox="0 0 24 24" fill="none">
  <defs>
    <linearGradient id="attendanceGrad" x1="0%" y1="0%" x2="100%" y2="100%">
      <stop offset="0%" style="stop-color:#10b981;stop-opacity:1" />
      <stop offset="100%" style="stop-color:#0d9488;stop-opacity:1" />
    </linearGradient>
  </defs>
  <!-- Calendar background -->
  <rect x="4" y="5" width="16" height="16" rx="2" fill="url(#attendanceGrad)" opacity="0.2" stroke="#10b981" stroke-width="1.5"/>
  <!-- Calendar header -->
  <rect x="4" y="5" width="16" height="3" rx="2" fill="url(#attendanceGrad)" opacity="0.5"/>
  <!-- Calendar binding rings -->
  <circle cx="7" cy="4" r="0.8" fill="#10b981"/>
  <circle cx="12" cy="4" r="0.8" fill="#10b981"/>
  <circle cx="17" cy="4" r="0.8" fill="#10b981"/>
  <!-- Grid lines vertical -->
  <line x1="8.7" y1="9" x2="8.7" y2="20" stroke="#10b981" stroke-width="0.6" opacity="0.3"/>
  <line x1="12.3" y1="9" x2="12.3" y2="20" stroke="#10b981" stroke-width="0.6" opacity="0.3"/>
  <line x1="15.9" y1="9" x2="15.9" y2="20" stroke="#10b981" stroke-width="0.6" opacity="0.3"/>
  <!-- Grid lines horizontal -->
  <line x1="5" y1="11.7" x2="19" y2="11.7" stroke="#10b981" stroke-width="0.6" opacity="0.3"/>
  <line x1="5" y1="14.3" x2="19" y2="14.3" stroke="#10b981" stroke-width="0.6" opacity="0.3"/>
  <line x1="5" y1="16.9" x2="19" y2="16.9" stroke="#10b981" stroke-width="0.6" opacity="0.3"/>
  <!-- Checkmarks -->
  <path d="M 6 10.5 L 7 11.5 L 8.5 9.5" fill="none" stroke="#10b981" stroke-width="1.5" stroke-linecap="round" stroke-linejoin="round"/>
  <path d="M 9.5 13 L 10.5 14 L 12 12" fill="none" stroke="#10b981" stroke-width="1.5" stroke-linecap="round" stroke-linejoin="round"/>
  <path d="M 13 15.5 L 14 16.5 L 15.5 14.5" fill="none" stroke="#10b981" stroke-width="1.5" stroke-linecap="round" stroke-linejoin="round"/>
  <path d="M 16.5 18 L 17.5 19 L 19 17" fill="none" stroke="#10b981" stroke-width="1.5" stroke-linecap="round" stroke-linejoin="round"/>
</svg>
