<svg xmlns="http://www.w3.org/2000/svg" viewBox="0 0 24 24" fill="none">
  <defs>
    <linearGradient id="folderGrad" x1="0%" y1="0%" x2="100%" y2="100%">
      <stop offset="0%" style="stop-color:#3b82f6;stop-opacity:1" />
      <stop offset="100%" style="stop-color:#8b5cf6;stop-opacity:1" />
    </linearGradient>
  </defs>
  <!-- Back folder -->
  <path d="M 4 8 L 4 18 C 4 19 4.5 19.5 5.5 19.5 L 18.5 19.5 C 19.5 19.5 20 19 20 18 L 20 10 L 4 10 Z" fill="url(#folderGrad)" opacity="0.3" stroke="url(#folderGrad)" stroke-width="1.5"/>
  <!-- Front folder -->
  <path d="M 3 5 L 10 5 L 11.5 7 L 19 7 C 20 7 20.5 7.5 20.5 8.5 L 20.5 16 C 20.5 17 20 17.5 19 17.5 L 5 17.5 C 4 17.5 3.5 17 3.5 16 L 3 5 Z" fill="url(#folderGrad)" opacity="0.5" stroke="#3b82f6" stroke-width="1.5"/>
  <!-- Tab on folder -->
  <path d="M 10 5 L 11.5 7 L 19 7" fill="none" stroke="#2563eb" stroke-width="1.5" stroke-linejoin="round"/>
  <!-- Divider lines for organization -->
  <line x1="8" y1="11" x2="8" y2="15" stroke="#60a5fa" stroke-width="1" opacity="0.6"/>
  <line x1="12" y1="11" x2="12" y2="15" stroke="#60a5fa" stroke-width="1" opacity="0.6"/>
  <line x1="16" y1="11" x2="16" y2="15" stroke="#60a5fa" stroke-width="1" opacity="0.6"/>
</svg>
